<?xml version="1.0" encoding="utf-8"?>
<!-- Generator: Adobe Illustrator 19.1.0, SVG Export Plug-In . SVG Version: 6.00 Build 0)  -->
<svg version="1.1" id="Layer_1" xmlns="http://www.w3.org/2000/svg" xmlns:xlink="http://www.w3.org/1999/xlink" x="0px" y="0px"
	 viewBox="0 0 64 64" enable-background="new 0 0 64 64" xml:space="preserve">
<g id="Vinyl">
	<path d="M27.3467007,50.6152c-7.6299,0-13.8368998-6.2070007-13.8368998-13.8368988c0-0.5527-0.4473-1-1-1
		c-0.5528002,0-1,0.4473-1,1c0,8.732399,7.1044989,15.8368988,15.8368998,15.8368988c0.5527,0,1-0.4472008,1-1
		C28.3467007,51.0625,27.8994007,50.6152,27.3467007,50.6152z"/>
	<path d="M35.8027,11.2598c-0.5527,0-1,0.4471998-1,1c0,0.5527,0.4473,1,1,1
		c7.6298981,0,13.8368988,6.2070007,13.8368988,13.8358994c0,0.5527,0.4473,1,1,1c0.5527992,0,1-0.4473,1-1
		C51.6395988,18.3633003,44.5351982,11.2598,35.8027,11.2598z"/>
	<path d="M32,0c-17.6730995,0-32,14.3268995-32,32s14.3268995,32,32,32s32-14.3269005,32-32S49.6731071,0,32,0z M32,62
		c-16.542099,0-30-13.4580002-30-30c0-16.542099,13.4578991-30,30-30s30,13.4579,30,30C62,48.5419998,48.5421104,62,32,62z"/>
	<path d="M32,19c-7.1796989,0-13,5.8202991-13,13s5.8203011,13,13,13s13-5.8203011,13-13S39.1796989,19,32,19z M32,43
		c-6.0653992,0-11-4.9346008-11-11s4.9346008-11,11-11s11,4.9346008,11,11S38.0653992,43,32,43z"/>
	<path d="M32,28c-2.2091007,0-4,1.7908001-4,4s1.7908993,4,4,4c2.2092018,0,4-1.7907982,4-4S34.2092018,28,32,28z M32,34
		c-1.1028004,0-2-0.8972015-2-2c0-1.1028004,0.8971996-2,2-2c1.1027985,0,2,0.8971996,2,2C34,33.1027985,33.1027985,34,32,34z"/>
</g>
<g>
</g>
<g>
</g>
<g>
</g>
<g>
</g>
<g>
</g>
<g>
</g>
<g>
</g>
<g>
</g>
<g>
</g>
<g>
</g>
<g>
</g>
<g>
</g>
<g>
</g>
<g>
</g>
<g>
</g>
</svg>
